<?xml version="1.0" encoding="UTF-8"?>
<svg version="1.1" xmlns="http://www.w3.org/2000/svg" width="1080" height="1080">
<path d="M0 0 C356.4 0 712.8 0 1080 0 C1080 356.4 1080 712.8 1080 1080 C723.6 1080 367.2 1080 0 1080 C0 723.6 0 367.2 0 0 Z " fill="#FEFEFE" transform="translate(0,0)"/>
<path d="M0 0 C356.4 0 712.8 0 1080 0 C1080 356.4 1080 712.8 1080 1080 C723.6 1080 367.2 1080 0 1080 C0 723.6 0 367.2 0 0 Z M478 7 C477.31607178 7.08485657 476.63214355 7.16971313 475.92749023 7.25714111 C455.7181336 9.76670457 435.96496598 13.46631529 416.17236328 18.24365234 C413.55618637 18.86739531 410.93889654 19.45940156 408.30859375 20.01953125 C336.02821189 35.55251451 266.74031763 72.67188671 209 118 C208.16597656 118.65097656 207.33195313 119.30195312 206.47265625 119.97265625 C201.60242955 123.81674118 196.84550173 127.78708519 192.125 131.8125 C191.59656494 132.26157715 191.06812988 132.7106543 190.52368164 133.17333984 C179.68317789 142.47994699 169.44197927 152.37149805 159.34448242 162.47021484 C157.30992358 164.50257364 155.26745813 166.52675947 153.22460938 168.55078125 C146.74453832 175.00366416 140.50814032 181.45465023 134.86376953 188.66259766 C132.86397368 191.17059418 130.74161342 193.52200913 128.5625 195.875 C123.77477394 201.13733543 119.46971363 206.72283001 115.20117188 212.40478516 C114.09521375 213.8735515 112.97781769 215.33368677 111.859375 216.79296875 C100.32777379 231.93353405 89.62425265 247.58094236 80 264 C79.52884766 264.79954102 79.05769531 265.59908203 78.57226562 266.42285156 C49.55313713 315.84060642 27.77359906 368.85984255 16 425 C15.76055664 426.12825195 15.52111328 427.25650391 15.27441406 428.41894531 C12.43596122 441.87895956 9.89827913 455.37382943 8 469 C7.90090332 469.71027344 7.80180664 470.42054688 7.69970703 471.15234375 C6.46616637 480.22188383 5.71666909 489.26041038 5.34130859 498.40625 C5.3098877 499.15003906 5.2784668 499.89382813 5.24609375 500.66015625 C5.22216553 501.30605713 5.1982373 501.95195801 5.17358398 502.61743164 C5.02315872 504.68212942 4.76842425 506.7387218 4.49511719 508.79077148 C3.98544203 512.76653721 3.85523134 516.67612903 3.83203125 520.6875 C3.82779648 521.41057846 3.82356171 522.13365692 3.81919861 522.87864685 C3.80927306 525.25248978 3.80929917 527.62613977 3.8125 530 C3.81310425 530.82557404 3.8137085 531.65114807 3.81433105 532.5017395 C3.87087144 561.34526711 5.18925228 590.00266063 9.48095703 618.54541016 C9.97655802 621.84397742 10.44188154 625.14559316 10.90234375 628.44921875 C17.21574808 672.2340697 31.21854303 715.57643334 49 756 C49.68618408 757.56186035 49.68618408 757.56186035 50.38623047 759.15527344 C69.04503544 801.28971185 93.22170431 840.07073387 122 876 C122.78375 876.9796875 123.5675 877.959375 124.375 878.96875 C128.65615114 884.26072849 133.07124673 889.3940266 137.6640625 894.41796875 C139.53252537 896.48327637 141.35761528 898.57256723 143.17626953 900.68115234 C146.80954543 904.83565981 150.61733286 908.77863987 154.515625 912.68359375 C155.21210144 913.38339859 155.90857788 914.08320343 156.62615967 914.80421448 C158.09044914 916.2735307 159.55606335 917.74152782 161.02294922 919.20825195 C163.23565195 921.42313779 165.44022426 923.64590305 167.64453125 925.86914062 C174.41811921 932.66904526 181.15382572 939.2886231 188.73095703 945.19848633 C191.13995371 947.11111668 193.38023799 949.14817142 195.625 951.25 C202.68165045 957.66920342 210.36716519 963.29280046 218 969 C218.64130859 969.48259277 219.28261719 969.96518555 219.94335938 970.46240234 C241.16968293 986.41569557 263.65720689 1000.37415549 287 1013 C287.79180664 1013.43280273 288.58361328 1013.86560547 289.39941406 1014.31152344 C326.64391334 1034.61726597 366.78679 1050.00912349 408 1060 C409.52681396 1060.37487549 409.52681396 1060.37487549 411.08447266 1060.75732422 C436.47095113 1066.95557109 461.98635471 1071.48222428 488 1074 C488.76638794 1074.08151306 489.53277588 1074.16302612 490.3223877 1074.24700928 C505.82673264 1075.8905991 521.20301104 1076.31253633 536.7890625 1076.26074219 C540.62776401 1076.24999226 544.46599976 1076.26072338 548.3046875 1076.2734375 C561.92671055 1076.28110189 575.31663189 1075.8159006 588.84954834 1074.24377441 C591.90046373 1073.89792376 594.95720709 1073.62964749 598.015625 1073.359375 C631.65332878 1070.15251365 664.84249101 1063.35173926 697 1053 C698.7334668 1052.44868408 698.7334668 1052.44868408 700.50195312 1051.88623047 C735.6387997 1040.6710502 769.5944296 1026.47392591 801.72558594 1008.28564453 C803.70831714 1007.16487784 805.69879107 1006.06076643 807.6953125 1004.96484375 C822.68920539 996.61717998 837.29673727 987.32844024 851 977 C852.47111688 975.92887217 853.94394335 974.8600905 855.41796875 973.79296875 C863.90248569 967.63358059 872.1883459 961.37158971 880.10546875 954.49609375 C882.79314256 952.17838314 885.53557505 949.95919807 888.3125 947.75 C900.99019908 937.36911659 912.47341528 925.62161161 924.0625 914.0625 C924.6510376 913.47664124 925.2395752 912.89078247 925.84594727 912.28717041 C932.11771824 906.03705791 938.29977114 899.78441102 944 893 C944.90050884 891.95526966 945.80152627 890.91097742 946.703125 889.8671875 C953.34296865 882.06638959 959.75034986 874.11631626 966 866 C966.47018555 865.39349609 966.94037109 864.78699219 967.42480469 864.16210938 C985.06939686 841.34479654 1000.07594898 816.86113973 1013.67333984 791.4609375 C1014.80120943 789.36875395 1015.94849243 787.2904953 1017.11328125 785.21875 C1044.0716749 736.54852379 1061.36664554 679.55331773 1069.6875 624.6875 C1069.83785706 623.70864838 1069.98821411 622.72979675 1070.14312744 621.72128296 C1072.42097645 606.83165136 1074.29232049 592.05667372 1075 577 C1075.08024414 575.56769043 1075.08024414 575.56769043 1075.16210938 574.10644531 C1075.98728237 559.32614085 1076.09945465 544.54922021 1076.125 529.75 C1076.12901825 528.41906815 1076.12901825 528.41906815 1076.13311768 527.06124878 C1076.1389643 524.51474913 1076.13725082 521.96837538 1076.1328125 519.421875 C1076.13478638 518.66042679 1076.13676025 517.89897858 1076.13879395 517.11445618 C1076.12082234 512.9577353 1075.73407236 509.08391412 1075 505 C1074.7824322 502.53331653 1074.59214062 500.0641493 1074.421875 497.59375 C1074.31559215 496.12785858 1074.2082895 494.66204083 1074.10009766 493.19628906 C1074.04364075 492.43094849 1073.98718384 491.66560791 1073.92901611 490.8770752 C1072.60959623 473.35708658 1070.30615842 456.26770692 1067 439 C1066.70222656 437.41638672 1066.70222656 437.41638672 1066.3984375 435.80078125 C1049.85141943 348.76346618 1009.97961633 265.73597247 953 198 C952.55333984 197.46842285 952.10667969 196.9368457 951.64648438 196.38916016 C950.16487986 194.63038132 948.67732988 192.87681524 947.1875 191.125 C946.53189087 190.35023315 946.53189087 190.35023315 945.86303711 189.55981445 C936.3684102 178.47241065 926.19917721 168.01257388 915.8815918 157.69628906 C913.93053259 155.74302472 911.98766164 153.78184746 910.04492188 151.8203125 C903.7322404 145.4799833 897.40433734 139.41135964 890.35717773 133.88354492 C887.84417873 131.87548823 885.48492606 129.74747687 883.125 127.5625 C825.54596449 75.30817154 748.67852294 40.01021007 674.11328125 20.55615234 C671.95587416 19.9883874 669.80646502 19.39514575 667.65625 18.80078125 C637.66906693 10.6991723 606.89118222 7.33988172 576 5 C575.29208313 4.9459198 574.58416626 4.8918396 573.85479736 4.83612061 C561.24586594 3.9036823 548.63965179 3.75736242 536 3.75 C534.42179474 3.74898788 534.42179474 3.74898788 532.81170654 3.74795532 C514.35922569 3.76662027 496.31706749 4.67290603 478 7 Z " fill="#FEFEFE" transform="translate(0,0)"/>
<path d="M0 0 C53.46 0 106.92 0 162 0 C162 235.62 162 471.24 162 714 C287.4 714 412.8 714 542 714 C542 757.23 542 800.46 542 845 C363.14 845 184.28 845 0 845 C0 566.15 0 287.3 0 0 Z " fill="#193CB8" transform="translate(288,108)"/>
<path d="M0 0 C0.33 0 0.66 0 1 0 C1 171.27 1 342.54 1 519 C-168.29 519 -337.58 519 -512 519 C-512 518.67 -512 518.34 -512 518 C-510.69160156 517.93683594 -509.38320313 517.87367188 -508.03515625 517.80859375 C-466.84712976 515.40253195 -424.58309398 509.01765381 -385.33251953 496.09423828 C-382.87015235 495.28571596 -380.40573718 494.48735409 -377.93701172 493.69873047 C-358.18526478 487.38480332 -338.9227038 480.53669267 -320 472 C-318.39705078 471.2889209 -318.39705078 471.2889209 -316.76171875 470.56347656 C-272.49494677 450.91123527 -230.70253125 425.17783925 -193.96484375 393.53125 C-191.24763118 391.21141634 -188.48191319 388.97556534 -185.6875 386.75 C-173.91616662 377.12659671 -163.19574774 366.28607929 -152.4375 355.5625 C-151.5096167 354.63928955 -150.5817334 353.7160791 -149.62573242 352.76489258 C-144.5428268 347.67000223 -139.65946973 342.48374223 -135 337 C-133.99151116 335.83539535 -132.98241323 334.6713178 -131.97265625 333.5078125 C-126.17427585 326.7807126 -120.42830481 320.03191268 -115 313 C-114.48099121 312.32791504 -113.96198242 311.65583008 -113.42724609 310.96337891 C-94.5179211 286.37548337 -77.70036089 260.31309657 -63 233 C-62.39534912 231.89060059 -61.79069824 230.78120117 -61.16772461 229.63818359 C-56.49888882 221.02998203 -52.19827435 212.30963226 -48.1875 203.375 C-47.89140839 202.71857513 -47.59531677 202.06215027 -47.29025269 201.38583374 C-41.35194141 188.18274619 -36.09564462 174.78357586 -31.15478516 161.17529297 C-30.1238954 158.34067306 -29.0715557 155.51528894 -28.01171875 152.69140625 C-23.3425986 140.04781747 -20.01580501 127.11184049 -16.77539062 114.03881836 C-16.08187048 111.32085703 -15.32478933 108.63215541 -14.546875 105.9375 C-12.20872143 97.42597579 -10.64995141 88.72795509 -9 80.0625 C-8.82225037 79.13070923 -8.64450073 78.19891846 -8.46136475 77.2388916 C-3.61114208 51.62870719 -1.53011913 25.98730154 0 0 Z " fill="#FEFEFE" transform="translate(1079,561)"/>
<path d="M0 0 C169.62 0 339.24 0 514 0 C514 171.93 514 343.86 514 521 C513.67 521 513.34 521 513 521 C512.97873047 519.02386719 512.97873047 519.02386719 512.95703125 517.0078125 C512.29994289 485.39487218 507.72975665 453.8589932 501 423 C500.8158252 422.13745605 500.63165039 421.27491211 500.44189453 420.38623047 C499.40418835 415.56013745 498.25537838 410.773925 497 406 C496.81566406 405.29053223 496.63132812 404.58106445 496.44140625 403.85009766 C478.22800032 334.73141255 446.63782293 269.63600875 403 213 C402.53352051 212.39317383 402.06704102 211.78634766 401.58642578 211.16113281 C392.910106 199.90651569 383.84281 189.01268734 374.265625 178.51171875 C373.01635154 177.12674834 371.77379803 175.73523345 370.56225586 174.31713867 C365.79528218 168.75460769 360.70084493 163.54765013 355.51196289 158.3815918 C354.06475615 156.93974779 352.62297974 155.49262884 351.18164062 154.04492188 C346.49373689 149.35370436 341.74734302 144.78503697 336.7097168 140.46899414 C334.3714486 138.45994663 332.12945291 136.35222297 329.875 134.25 C324.59158229 129.42760074 319.05096854 125.02236878 313.39453125 120.6484375 C310.43259338 118.3545252 307.55536436 115.97342087 304.6875 113.5625 C297.43809894 107.60612077 289.72744835 102.31040385 282 97 C281.3002002 96.51660156 280.60040039 96.03320312 279.87939453 95.53515625 C238.60075555 67.12421144 194.2539186 45.36664385 147 29 C145.90413574 28.61730957 144.80827148 28.23461914 143.67919922 27.84033203 C97.25631126 11.69845287 48.90817713 4.21701067 0 1 C0 0.67 0 0.34 0 0 Z " fill="#FEFEFE" transform="translate(566,0)"/>
<path d="M0 0 C0.33 0 0.66 0 1 0 C1.02505615 0.57967529 1.0501123 1.15935059 1.07592773 1.7565918 C1.19246234 4.40042107 1.31492682 7.04394409 1.4375 9.6875 C1.47681641 10.59951172 1.51613281 11.51152344 1.55664062 12.45117188 C1.59853516 13.33740234 1.64042969 14.22363281 1.68359375 15.13671875 C1.73858032 16.35427856 1.73858032 16.35427856 1.79467773 17.59643555 C2.01054271 20.12341615 2.49329193 22.51666287 3 25 C3.1458668 26.42465426 3.26544585 27.85223139 3.359375 29.28125 C4.43960872 43.91000875 6.72304525 58.19923578 9.37841797 72.61914062 C9.9328319 75.63466461 10.47122682 78.65245507 11.00390625 81.671875 C14.57046373 101.54720889 19.63016247 120.98826329 26.04052734 140.13232422 C26.69298023 142.08237807 27.33890308 144.03462631 27.97900391 145.98876953 C44.40095492 196.06499462 68.23197476 244.16408184 99 287 C99.55896973 287.7827832 100.11793945 288.56556641 100.69384766 289.37207031 C109.00677571 300.97313992 117.7917908 312.09954468 127 323 C127.76908691 323.91773193 127.76908691 323.91773193 128.55371094 324.85400391 C139.66510194 338.10887405 151.51257369 350.59436422 163.6875 362.875 C164.54206787 363.74261963 165.39663574 364.61023926 166.27709961 365.50415039 C171.46647054 370.70048491 176.85274533 375.45604348 182.58276367 380.04833984 C185.27783748 382.22432409 187.7953467 384.49745352 190.3125 386.875 C196.01697854 392.11083866 202.00582741 396.88185865 208.15087891 401.58349609 C209.97545388 402.98119665 211.79038303 404.39079167 213.60546875 405.80078125 C235.68608503 422.79859111 259.51681048 437.71622971 284 451 C284.83595703 451.45487793 285.67191406 451.90975586 286.53320312 452.37841797 C356.47725532 490.22052719 432.20596632 508.72481684 511 515 C511 515.33 511 515.66 511 516 C342.37 516 173.74 516 0 516 C0 345.72 0 175.44 0 0 Z " fill="#FEFEFE" transform="translate(0,564)"/>
<path d="M0 0 C0.70788666 0.22860718 1.41577332 0.45721436 2.14511108 0.69274902 C39.48264684 12.76244277 39.48264684 12.76244277 56 20 C57.19093262 20.51900879 58.38186523 21.03801758 59.60888672 21.57275391 C106.9828349 42.30000306 151.72480654 68.61031705 191.00390625 102.44140625 C193.89841153 104.91324583 196.84401283 107.30538067 199.8125 109.6875 C203.74117422 112.88168295 207.37089272 116.21054268 210.85546875 119.8828125 C212.68928659 121.69324833 214.55970377 123.35331193 216.515625 125.02734375 C221.5840085 129.42903493 226.31179544 134.16150521 231.0456543 138.9152832 C232.5599258 140.43491668 234.0794743 141.94912517 235.59960938 143.46289062 C240.94368299 148.80298264 246.10820162 154.23854857 251 160 C251.94900247 161.08336318 252.89947104 162.16544426 253.8515625 163.24609375 C261.11789116 171.57840966 267.87444799 180.23011365 274.52294922 189.06005859 C275.79536343 190.7312327 277.09983362 192.37791149 278.41015625 194.01953125 C291.29157972 210.17102448 302.81558855 228.03875823 313 246 C313.37463379 246.65597168 313.74926758 247.31194336 314.13525391 247.98779297 C317.15441657 253.29072862 320.08867824 258.63726094 323 264 C323.46277344 264.84498047 323.92554688 265.68996094 324.40234375 266.56054688 C348.8482219 311.37799014 365.96540395 360.55750472 376 410.5625 C376.16919952 411.40273712 376.33839905 412.24297424 376.51272583 413.1086731 C382.13915312 441.35556058 385.74671133 470.18137823 386 499 C386.02342446 500.43231098 386.04808122 501.86460214 386.07373047 503.296875 C386.5064282 528.35158603 385.43450057 553.06361764 383 578 C382.83975342 579.69817871 382.83975342 579.69817871 382.67626953 581.43066406 C379.3568078 615.43198145 371.84668647 649.63889071 361 682 C360.64953613 683.0631543 360.29907227 684.12630859 359.93798828 685.22167969 C354.10919379 702.86359642 347.58254501 720.03799177 340 737 C339.2280127 738.7312915 339.2280127 738.7312915 338.44042969 740.49755859 C318.6882891 784.52812153 293.08135537 826.19715453 261.63671875 862.89453125 C259.27889771 865.65252903 257.01109619 868.47446369 254.75 871.3125 C245.47359563 882.65575236 235.06587392 893.03042364 224.75274658 903.42248535 C223.76809059 904.41517984 222.78491973 905.40935014 221.80340576 906.40515137 C215.93576875 912.34925365 209.90804631 917.86495305 203.38427734 923.08129883 C200.69743121 925.24348639 198.19372571 927.50777504 195.6875 929.875 C189.98302146 935.11083866 183.99417259 939.88185865 177.84912109 944.58349609 C176.02454612 945.98119665 174.20961697 947.39079167 172.39453125 948.80078125 C102.09838401 1002.93094172 16.74380568 1038.86034056 -82.8125 1053.75 C-83.89413422 1053.90143967 -83.89413422 1053.90143967 -84.99761963 1054.05593872 C-108.09648574 1057.25595454 -131.19465587 1058.38563791 -154.5 1058.3125 C-155.71779144 1058.31067719 -156.93558289 1058.30885437 -158.1902771 1058.30697632 C-177.97427765 1058.25736644 -197.36703499 1057.48104909 -217 1055 C-218.43856657 1054.82605743 -219.87720821 1054.65273474 -221.31591797 1054.47998047 C-240.75442351 1052.11910952 -259.64691523 1048.64336777 -278.64111328 1043.83789062 C-281.73129979 1043.06702857 -284.82738072 1042.34360177 -287.93359375 1041.640625 C-334.77988648 1030.85831899 -381.68921797 1011.54072984 -423 987 C-424.43859375 986.14631836 -424.43859375 986.14631836 -425.90625 985.27539062 C-446.41078138 973.03103865 -466.31633397 959.89826336 -485 945 C-486.25876953 944.01193359 -486.25876953 944.01193359 -487.54296875 943.00390625 C-497.13558475 935.42436706 -506.45558892 927.50369987 -515.48828125 919.265625 C-516.85482859 918.03296954 -518.22763739 916.80659174 -519.63012695 915.61499023 C-525.67969618 910.44953436 -531.29014793 904.86177776 -536.90014648 899.23022461 C-538.5592732 897.56573723 -540.22368051 895.90666553 -541.88867188 894.24804688 C-547.46980399 888.67077137 -552.89671016 883.02245958 -558 877 C-559.04479031 875.80806527 -560.09165956 874.61794955 -561.140625 873.4296875 C-567.89145381 865.7290041 -574.41461405 857.90286937 -580.640625 849.77148438 C-581.99070178 848.01211707 -583.35440336 846.26393777 -584.71875 844.515625 C-626.43600469 790.5153595 -658.24448075 726.60930455 -675.33398438 660.52587891 C-675.93672202 658.23998314 -676.57502747 655.96930355 -677.234375 653.69921875 C-684.90463864 626.84863985 -690.35329505 597.70741055 -691.7890625 569.8125 C-691.92311224 567.09856377 -691.92311224 567.09856377 -692.47851562 564.88818359 C-693.19368196 560.92731388 -693.3677405 556.99303154 -693.5546875 552.9765625 C-693.59673309 552.09739166 -693.63877869 551.21822083 -693.68209839 550.31240845 C-694.10882161 540.66675042 -694.15651256 531.02849544 -694.125 521.375 C-694.12278442 520.46113525 -694.12056885 519.54727051 -694.11828613 518.60571289 C-693.97866144 469.21294183 -688.87380485 419.94317133 -674.72021484 372.42236328 C-674.20619056 370.69349924 -673.69950619 368.9624459 -673.19775391 367.22998047 C-652.53696622 296.01843306 -617.18738453 229.61758213 -569.50439453 172.80859375 C-567.50437119 170.40415154 -565.56922724 167.94965253 -563.625 165.5 C-553.87442517 153.60644169 -542.84337987 142.75845572 -532 131.875 C-531.12827148 130.99859863 -530.25654297 130.12219727 -529.35839844 129.21923828 C-524.937527 124.80938935 -520.45297391 120.54382582 -515.71582031 116.47509766 C-513.55478032 114.61724284 -511.46835888 112.68350238 -509.375 110.75 C-504.32959545 106.19758154 -499.04100993 102.02506733 -493.671875 97.8671875 C-491.27774564 96.01028357 -488.91534502 94.12331777 -486.578125 92.1953125 C-462.95410742 72.76056312 -436.72187494 56.77663258 -410 42 C-409.17628906 41.54415527 -408.35257812 41.08831055 -407.50390625 40.61865234 C-349.53686451 8.80775009 -284.48533963 -11.05818856 -218.91357422 -18.54589844 C-216.40311577 -18.83719305 -213.89410183 -19.14139474 -211.38720703 -19.46191406 C-142.04812626 -28.3194101 -66.56098936 -21.6092218 0 0 Z M-216 -15 C-216.68392822 -14.91514343 -217.36785645 -14.83028687 -218.07250977 -14.74285889 C-238.2818664 -12.23329543 -258.03503402 -8.53368471 -277.82763672 -3.75634766 C-280.44381363 -3.13260469 -283.06110346 -2.54059844 -285.69140625 -1.98046875 C-357.97178811 13.55251451 -427.25968237 50.67188671 -485 96 C-485.83402344 96.65097656 -486.66804687 97.30195312 -487.52734375 97.97265625 C-492.39757045 101.81674118 -497.15449827 105.78708519 -501.875 109.8125 C-502.40343506 110.26157715 -502.93187012 110.7106543 -503.47631836 111.17333984 C-514.31682211 120.47994699 -524.55802073 130.37149805 -534.65551758 140.47021484 C-536.69007642 142.50257364 -538.73254187 144.52675947 -540.77539062 146.55078125 C-547.25546168 153.00366416 -553.49185968 159.45465023 -559.13623047 166.66259766 C-561.13602632 169.17059418 -563.25838658 171.52200913 -565.4375 173.875 C-570.22522606 179.13733543 -574.53028637 184.72283001 -578.79882812 190.40478516 C-579.90478625 191.8735515 -581.02218231 193.33368677 -582.140625 194.79296875 C-593.67222621 209.93353405 -604.37574735 225.58094236 -614 242 C-614.47115234 242.79954102 -614.94230469 243.59908203 -615.42773438 244.42285156 C-644.44686287 293.84060642 -666.22640094 346.85984255 -678 403 C-678.23944336 404.12825195 -678.47888672 405.25650391 -678.72558594 406.41894531 C-681.56403878 419.87895956 -684.10172087 433.37382943 -686 447 C-686.09909668 447.71027344 -686.19819336 448.42054688 -686.30029297 449.15234375 C-687.53383363 458.22188383 -688.28333091 467.26041038 -688.65869141 476.40625 C-688.6901123 477.15003906 -688.7215332 477.89382813 -688.75390625 478.66015625 C-688.77783447 479.30605713 -688.8017627 479.95195801 -688.82641602 480.61743164 C-688.97684128 482.68212942 -689.23157575 484.7387218 -689.50488281 486.79077148 C-690.01455797 490.76653721 -690.14476866 494.67612903 -690.16796875 498.6875 C-690.17220352 499.41057846 -690.17643829 500.13365692 -690.18080139 500.87864685 C-690.19072694 503.25248978 -690.19070083 505.62613977 -690.1875 508 C-690.18689575 508.82557404 -690.1862915 509.65114807 -690.18566895 510.5017395 C-690.12912856 539.34526711 -688.81074772 568.00266063 -684.51904297 596.54541016 C-684.02344198 599.84397742 -683.55811846 603.14559316 -683.09765625 606.44921875 C-676.78425192 650.2340697 -662.78145697 693.57643334 -645 734 C-644.31381592 735.56186035 -644.31381592 735.56186035 -643.61376953 737.15527344 C-624.95496456 779.28971185 -600.77829569 818.07073387 -572 854 C-571.21625 854.9796875 -570.4325 855.959375 -569.625 856.96875 C-565.34384886 862.26072849 -560.92875327 867.3940266 -556.3359375 872.41796875 C-554.46747463 874.48327637 -552.64238472 876.57256723 -550.82373047 878.68115234 C-547.19045457 882.83565981 -543.38266714 886.77863987 -539.484375 890.68359375 C-538.78789856 891.38339859 -538.09142212 892.08320343 -537.37384033 892.80421448 C-535.90955086 894.2735307 -534.44393665 895.74152782 -532.97705078 897.20825195 C-530.76434805 899.42313779 -528.55977574 901.64590305 -526.35546875 903.86914062 C-519.58188079 910.66904526 -512.84617428 917.2886231 -505.26904297 923.19848633 C-502.86004629 925.11111668 -500.61976201 927.14817142 -498.375 929.25 C-491.31834955 935.66920342 -483.63283481 941.29280046 -476 947 C-475.35869141 947.48259277 -474.71738281 947.96518555 -474.05664062 948.46240234 C-452.83031707 964.41569557 -430.34279311 978.37415549 -407 991 C-406.20819336 991.43280273 -405.41638672 991.86560547 -404.60058594 992.31152344 C-367.35608666 1012.61726597 -327.21321 1028.00912349 -286 1038 C-284.47318604 1038.37487549 -284.47318604 1038.37487549 -282.91552734 1038.75732422 C-257.52904887 1044.95557109 -232.01364529 1049.48222428 -206 1052 C-205.23361206 1052.08151306 -204.46722412 1052.16302612 -203.6776123 1052.24700928 C-188.17326736 1053.8905991 -172.79698896 1054.31253633 -157.2109375 1054.26074219 C-153.37223599 1054.24999226 -149.53400024 1054.26072338 -145.6953125 1054.2734375 C-132.07328945 1054.28110189 -118.68336811 1053.8159006 -105.15045166 1052.24377441 C-102.09953627 1051.89792376 -99.04279291 1051.62964749 -95.984375 1051.359375 C-62.34667122 1048.15251365 -29.15750899 1041.35173926 3 1031 C4.7334668 1030.44868408 4.7334668 1030.44868408 6.50195312 1029.88623047 C41.6387997 1018.6710502 75.5944296 1004.47392591 107.72558594 986.28564453 C109.70831714 985.16487784 111.69879107 984.06076643 113.6953125 982.96484375 C128.68920539 974.61717998 143.29673727 965.32844024 157 955 C158.47111688 953.92887217 159.94394335 952.8600905 161.41796875 951.79296875 C169.90248569 945.63358059 178.1883459 939.37158971 186.10546875 932.49609375 C188.79314256 930.17838314 191.53557505 927.95919807 194.3125 925.75 C206.99019908 915.36911659 218.47341528 903.62161161 230.0625 892.0625 C230.6510376 891.47664124 231.2395752 890.89078247 231.84594727 890.28717041 C238.11771824 884.03705791 244.29977114 877.78441102 250 871 C250.90050884 869.95526966 251.80152627 868.91097742 252.703125 867.8671875 C259.34296865 860.06638959 265.75034986 852.11631626 272 844 C272.47018555 843.39349609 272.94037109 842.78699219 273.42480469 842.16210938 C291.06939686 819.34479654 306.07594898 794.86113973 319.67333984 769.4609375 C320.80120943 767.36875395 321.94849243 765.2904953 323.11328125 763.21875 C350.0716749 714.54852379 367.36664554 657.55331773 375.6875 602.6875 C375.83785706 601.70864838 375.98821411 600.72979675 376.14312744 599.72128296 C378.42097645 584.83165136 380.29232049 570.05667372 381 555 C381.08024414 553.56769043 381.08024414 553.56769043 381.16210938 552.10644531 C381.98728237 537.32614085 382.09945465 522.54922021 382.125 507.75 C382.12901825 506.41906815 382.12901825 506.41906815 382.13311768 505.06124878 C382.1389643 502.51474913 382.13725082 499.96837538 382.1328125 497.421875 C382.13478638 496.66042679 382.13676025 495.89897858 382.13879395 495.11445618 C382.12082234 490.9577353 381.73407236 487.08391412 381 483 C380.7824322 480.53331653 380.59214062 478.0641493 380.421875 475.59375 C380.31559215 474.12785858 380.2082895 472.66204083 380.10009766 471.19628906 C380.04364075 470.43094849 379.98718384 469.66560791 379.92901611 468.8770752 C378.60959623 451.35708658 376.30615842 434.26770692 373 417 C372.70222656 415.41638672 372.70222656 415.41638672 372.3984375 413.80078125 C355.85141943 326.76346618 315.97961633 243.73597247 259 176 C258.55333984 175.46842285 258.10667969 174.9368457 257.64648438 174.38916016 C256.16487986 172.63038132 254.67732988 170.87681524 253.1875 169.125 C252.53189087 168.35023315 252.53189087 168.35023315 251.86303711 167.55981445 C242.3684102 156.47241065 232.19917721 146.01257388 221.8815918 135.69628906 C219.93053259 133.74302472 217.98766164 131.78184746 216.04492188 129.8203125 C209.7322404 123.4799833 203.40433734 117.41135964 196.35717773 111.88354492 C193.84417873 109.87548823 191.48492606 107.74747687 189.125 105.5625 C131.54596449 53.30817154 54.67852294 18.01021007 -19.88671875 -1.44384766 C-22.04412584 -2.0116126 -24.19353498 -2.60485425 -26.34375 -3.19921875 C-56.33093307 -11.3008277 -87.10881778 -14.66011828 -118 -17 C-118.70791687 -17.0540802 -119.41583374 -17.1081604 -120.14520264 -17.16387939 C-132.75413406 -18.0963177 -145.36034821 -18.24263758 -158 -18.25 C-159.57820526 -18.25101212 -159.57820526 -18.25101212 -161.18829346 -18.25204468 C-179.64077431 -18.23337973 -197.68293251 -17.32709397 -216 -15 Z " fill="#2849BC" transform="translate(694,22)"/>
</svg>
